// Untitled
// David William Hearn
// Created with StaffPad Editor

<global>
ampeg_decay=0
amp_veltrack=0
ampeg_sustain=100
ampeg_attack=0
ampeg_release=0.35


<group>
group_label=RR1
seq_length=2
seq_position=1


<region>
sample=6Horns_muted_staccato_PP_G4_RR1.opus
hivel=64
key=g4
lovel=0
tune=0
volume=0

<region>
sample=6Horns_muted_staccato_PP_G3_RR1.opus
hivel=64
key=g3
lovel=0
tune=0
volume=0

<region>
sample=6Horns_muted_staccato_PP_G2_RR1.opus
hivel=64
key=g2
lovel=0
tune=0
volume=0

<region>
sample=6Horns_muted_staccato_PP_F2_RR1.opus
hivel=64
key=F2
lovel=0
tune=0
volume=0

<region>
sample=6Horns_muted_staccato_PP_F#4_RR1.opus
hikey=f#4
hivel=64
lokey=f4
lovel=0
pitch_keycenter=F#4
tune=0
volume=0

<region>
sample=6Horns_muted_staccato_PP_F#3_RR1.opus
hikey=f#3
hivel=64
lokey=f3
lovel=0
pitch_keycenter=F#3
tune=0
volume=0

<region>
sample=6Horns_muted_staccato_PP_F#2_RR1.opus
hivel=64
key=F#2
lovel=0
tune=0
volume=0

<region>
sample=6Horns_muted_staccato_PP_E5_RR1.opus
hikey=e5
hivel=64
lokey=d#5
lovel=0
pitch_keycenter=E5
tune=0
volume=0

<region>
sample=6Horns_muted_staccato_PP_E4_RR1.opus
hikey=e4
hivel=64
lokey=d#4
lovel=0
pitch_keycenter=e4
tune=0
volume=0

<region>
sample=6Horns_muted_staccato_PP_E3_RR1.opus
hikey=e3
hivel=64
lokey=d#3
lovel=0
pitch_keycenter=e3
tune=0
volume=0

<region>
sample=6Horns_muted_staccato_PP_D5_RR1.opus
hikey=d5
hivel=64
lokey=c#5
lovel=0
pitch_keycenter=d5
tune=0
volume=0

<region>
sample=6Horns_muted_staccato_PP_D4_RR1.opus
hikey=d4
hivel=64
lokey=c#4
lovel=0
pitch_keycenter=d4
tune=0
volume=0

<region>
sample=6Horns_muted_staccato_PP_D3_RR1.opus
hikey=d3
hivel=64
lokey=c#3
lovel=0
pitch_keycenter=d3
tune=0
volume=0

<region>
sample=6Horns_muted_staccato_PP_C5_RR1.opus
hivel=64
key=c5
lovel=0
tune=0
volume=0

<region>
sample=6Horns_muted_staccato_PP_C4_RR1.opus
hivel=64
key=c4
lovel=0
tune=0
volume=0

<region>
sample=6Horns_muted_staccato_PP_C3_RR1.opus
hikey=c3
hivel=64
lokey=b2
lovel=0
pitch_keycenter=c3
tune=0
volume=0

<region>
sample=6Horns_muted_staccato_PP_B4_RR1.opus
hikey=b4
hivel=64
lokey=a#4
lovel=0
pitch_keycenter=B4
tune=0
volume=0

<region>
sample=6Horns_muted_staccato_PP_B3_RR1.opus
hikey=b3
hivel=64
lokey=a#3
lovel=0
pitch_keycenter=B3
tune=0
volume=0

<region>
sample=6Horns_muted_staccato_PP_A4_RR1.opus
hikey=a4
hivel=64
lokey=g#4
lovel=0
pitch_keycenter=a4
tune=0
volume=0

<region>
sample=6Horns_muted_staccato_PP_A3_RR1.opus
hikey=a3
hivel=64
lokey=g#3
lovel=0
pitch_keycenter=a3
tune=0
volume=0

<region>
sample=6Horns_muted_staccato_PP_A2_RR1.opus
hikey=a2
hivel=64
lokey=g#2
lovel=0
pitch_keycenter=A2
tune=0
volume=0

<region>
sample=6Horns_muted_staccato_PP_A#2_RR1.opus
hivel=64
key=a#2
lovel=0
tune=0
volume=0

<region>
sample=6Horns_muted_staccato_FF_G4_RR1.opus
hivel=127
key=g4
lovel=65
tune=0
volume=0

<region>
sample=6Horns_muted_staccato_FF_G3_RR1.opus
hivel=127
key=g3
lovel=65
tune=0
volume=0

<region>
sample=6Horns_muted_staccato_FF_G2_RR1.opus
hivel=127
key=g2
lovel=65
tune=0
volume=0

<region>
sample=6Horns_muted_staccato_FF_F2_RR1.opus
hivel=127
key=F2
lovel=65
tune=0
volume=0

<region>
sample=6Horns_muted_staccato_FF_F#4_RR1.opus
hikey=f#4
hivel=127
lokey=f4
lovel=65
pitch_keycenter=F#4
tune=0
volume=0

<region>
sample=6Horns_muted_staccato_FF_F#3_RR1.opus
hikey=f#3
hivel=127
lokey=f3
lovel=65
pitch_keycenter=F#3
tune=0
volume=0

<region>
sample=6Horns_muted_staccato_FF_F#2_RR1.opus
hivel=127
key=F#2
lovel=65
tune=0
volume=0

<region>
sample=6Horns_muted_staccato_FF_E5_RR1.opus
hikey=e5
hivel=127
lokey=d#5
lovel=65
pitch_keycenter=E5
tune=0
volume=0

<region>
sample=6Horns_muted_staccato_FF_E4_RR1.opus
hikey=e4
hivel=127
lokey=d#4
lovel=65
pitch_keycenter=e4
tune=0
volume=0

<region>
sample=6Horns_muted_staccato_FF_E3_RR1.opus
hikey=e3
hivel=127
lokey=d#3
lovel=65
pitch_keycenter=e3
tune=0
volume=0

<region>
sample=6Horns_muted_staccato_FF_D5_RR1.opus
hikey=d5
hivel=127
lokey=c#5
lovel=65
pitch_keycenter=d5
tune=0
volume=0

<region>
sample=6Horns_muted_staccato_FF_D4_RR1.opus
hikey=d4
hivel=127
lokey=c#4
lovel=65
pitch_keycenter=d4
tune=0
volume=0

<region>
sample=6Horns_muted_staccato_FF_D3_RR1.opus
hikey=d3
hivel=127
lokey=c#3
lovel=65
pitch_keycenter=d3
tune=0
volume=0

<region>
sample=6Horns_muted_staccato_FF_C5_RR1.opus
hivel=127
key=c5
lovel=65
tune=0
volume=0

<region>
sample=6Horns_muted_staccato_FF_C4_RR1.opus
hivel=127
key=c4
lovel=65
tune=0
volume=0

<region>
sample=6Horns_muted_staccato_FF_C3_RR1.opus
hikey=c3
hivel=127
lokey=b2
lovel=65
pitch_keycenter=c3
tune=0
volume=0

<region>
sample=6Horns_muted_staccato_FF_B4_RR1.opus
hikey=b4
hivel=127
lokey=a#4
lovel=65
pitch_keycenter=B4
tune=0
volume=0

<region>
sample=6Horns_muted_staccato_FF_B3_RR1.opus
hikey=b3
hivel=127
lokey=a#3
lovel=65
pitch_keycenter=B3
tune=0
volume=0

<region>
sample=6Horns_muted_staccato_FF_A4_RR1.opus
hikey=a4
hivel=127
lokey=g#4
lovel=65
pitch_keycenter=a4
tune=0
volume=0

<region>
sample=6Horns_muted_staccato_FF_A3_RR1.opus
hikey=a3
hivel=127
lokey=g#3
lovel=65
pitch_keycenter=a3
tune=0
volume=0

<region>
sample=6Horns_muted_staccato_FF_A2_RR1.opus
hikey=a2
hivel=127
lokey=g#2
lovel=65
pitch_keycenter=A2
tune=0
volume=0

<region>
sample=6Horns_muted_staccato_FF_A#2_RR1.opus
hivel=127
key=a#2
lovel=65
tune=0
volume=0



<group>
group_label=RR2
seq_length=2
seq_position=2


<region>
sample=6Horns_muted_staccato_PP_G4_RR2.opus
hivel=64
key=g4
lovel=0
tune=0
volume=0

<region>
sample=6Horns_muted_staccato_PP_G3_RR2.opus
hivel=64
key=g3
lovel=0
tune=0
volume=0

<region>
sample=6Horns_muted_staccato_PP_G2_RR2.opus
hivel=64
key=g2
lovel=0
tune=0
volume=0

<region>
sample=6Horns_muted_staccato_PP_F2_RR2.opus
hivel=64
key=F2
lovel=0
tune=0
volume=0

<region>
sample=6Horns_muted_staccato_PP_F#4_RR2.opus
hikey=f#4
hivel=64
lokey=f4
lovel=0
pitch_keycenter=F#4
tune=0
volume=0

<region>
sample=6Horns_muted_staccato_PP_F#3_RR2.opus
hikey=f#3
hivel=64
lokey=f3
lovel=0
pitch_keycenter=F#3
tune=0
volume=0

<region>
sample=6Horns_muted_staccato_PP_F#2_RR2.opus
hivel=64
key=F#2
lovel=0
tune=0
volume=0

<region>
sample=6Horns_muted_staccato_PP_E5_RR2.opus
hikey=e5
hivel=64
lokey=d#5
lovel=0
pitch_keycenter=E5
tune=0
volume=0

<region>
sample=6Horns_muted_staccato_PP_E4_RR2.opus
hikey=e4
hivel=64
lokey=d#4
lovel=0
pitch_keycenter=e4
tune=0
volume=0

<region>
sample=6Horns_muted_staccato_PP_E3_RR2.opus
hikey=e3
hivel=64
lokey=d#3
lovel=0
pitch_keycenter=e3
tune=0
volume=0

<region>
sample=6Horns_muted_staccato_PP_D5_RR2.opus
hikey=d5
hivel=64
lokey=c#5
lovel=0
pitch_keycenter=d5
tune=0
volume=0

<region>
sample=6Horns_muted_staccato_PP_D4_RR2.opus
hikey=d4
hivel=64
lokey=c#4
lovel=0
pitch_keycenter=d4
tune=0
volume=0

<region>
sample=6Horns_muted_staccato_PP_D3_RR2.opus
hikey=d3
hivel=64
lokey=c#3
lovel=0
pitch_keycenter=d3
tune=0
volume=0

<region>
sample=6Horns_muted_staccato_PP_C5_RR2.opus
hivel=64
key=c5
lovel=0
tune=0
volume=0

<region>
sample=6Horns_muted_staccato_PP_C4_RR2.opus
hivel=64
key=c4
lovel=0
tune=0
volume=0

<region>
sample=6Horns_muted_staccato_PP_C3_RR2.opus
hikey=c3
hivel=64
lokey=b2
lovel=0
pitch_keycenter=c3
tune=0
volume=0

<region>
sample=6Horns_muted_staccato_PP_B4_RR2.opus
hikey=b4
hivel=64
lokey=a#4
lovel=0
pitch_keycenter=B4
tune=0
volume=0

<region>
sample=6Horns_muted_staccato_PP_B3_RR2.opus
hikey=b3
hivel=64
lokey=a#3
lovel=0
pitch_keycenter=B3
tune=0
volume=0

<region>
sample=6Horns_muted_staccato_PP_A4_RR2.opus
hikey=a4
hivel=64
lokey=g#4
lovel=0
pitch_keycenter=a4
tune=0
volume=0

<region>
sample=6Horns_muted_staccato_PP_A3_RR2.opus
hikey=a3
hivel=64
lokey=g#3
lovel=0
pitch_keycenter=a3
tune=0
volume=0

<region>
sample=6Horns_muted_staccato_PP_A2_RR2.opus
hikey=a2
hivel=64
lokey=g#2
lovel=0
pitch_keycenter=A2
tune=0
volume=0

<region>
sample=6Horns_muted_staccato_PP_A#2_RR2.opus
hivel=64
key=a#2
lovel=0
tune=0
volume=0

<region>
sample=6Horns_muted_staccato_FF_G4_RR2.opus
hivel=127
key=g4
lovel=65
tune=0
volume=0

<region>
sample=6Horns_muted_staccato_FF_G3_RR2.opus
hivel=127
key=g3
lovel=65
tune=0
volume=0

<region>
sample=6Horns_muted_staccato_FF_G2_RR2.opus
hivel=127
key=g2
lovel=65
tune=0
volume=0

<region>
sample=6Horns_muted_staccato_FF_F2_RR2.opus
hivel=127
key=F2
lovel=65
tune=0
volume=0

<region>
sample=6Horns_muted_staccato_FF_F#4_RR2.opus
hikey=f#4
hivel=127
lokey=f4
lovel=65
pitch_keycenter=F#4
tune=0
volume=0

<region>
sample=6Horns_muted_staccato_FF_F#3_RR2.opus
hikey=f#3
hivel=127
lokey=f3
lovel=65
pitch_keycenter=F#3
tune=0
volume=0

<region>
sample=6Horns_muted_staccato_FF_F#2_RR2.opus
hivel=127
key=F#2
lovel=65
tune=0
volume=0

<region>
sample=6Horns_muted_staccato_FF_E5_RR2.opus
hikey=e5
hivel=127
lokey=d#5
lovel=65
pitch_keycenter=E5
tune=0
volume=0

<region>
sample=6Horns_muted_staccato_FF_E4_RR2.opus
hikey=e4
hivel=127
lokey=d#4
lovel=65
pitch_keycenter=e4
tune=0
volume=0

<region>
sample=6Horns_muted_staccato_FF_E3_RR2.opus
hikey=e3
hivel=127
lokey=d#3
lovel=65
pitch_keycenter=e3
tune=0
volume=0

<region>
sample=6Horns_muted_staccato_FF_D5_RR2.opus
hikey=d5
hivel=127
lokey=c#5
lovel=65
pitch_keycenter=d5
tune=0
volume=0

<region>
sample=6Horns_muted_staccato_FF_D4_RR2.opus
hikey=d4
hivel=127
lokey=c#4
lovel=65
pitch_keycenter=d4
tune=0
volume=0

<region>
sample=6Horns_muted_staccato_FF_D3_RR2.opus
hikey=d3
hivel=127
lokey=c#3
lovel=65
pitch_keycenter=d3
tune=0
volume=0

<region>
sample=6Horns_muted_staccato_FF_C5_RR2.opus
hivel=127
key=c5
lovel=65
tune=0
volume=0

<region>
sample=6Horns_muted_staccato_FF_C4_RR2.opus
hivel=127
key=c4
lovel=65
tune=0
volume=0

<region>
sample=6Horns_muted_staccato_FF_C3_RR2.opus
hikey=c3
hivel=127
lokey=b2
lovel=65
pitch_keycenter=c3
tune=0
volume=0

<region>
sample=6Horns_muted_staccato_FF_B4_RR2.opus
hikey=b4
hivel=127
lokey=a#4
lovel=65
pitch_keycenter=B4
tune=0
volume=0

<region>
sample=6Horns_muted_staccato_FF_B3_RR2.opus
hikey=b3
hivel=127
lokey=a#3
lovel=65
pitch_keycenter=B3
tune=0
volume=0

<region>
sample=6Horns_muted_staccato_FF_A4_RR2.opus
hikey=a4
hivel=127
lokey=g#4
lovel=65
pitch_keycenter=a4
tune=0
volume=0

<region>
sample=6Horns_muted_staccato_FF_A3_RR2.opus
hikey=a3
hivel=127
lokey=g#3
lovel=65
pitch_keycenter=a3
tune=0
volume=0

<region>
sample=6Horns_muted_staccato_FF_A2_RR2.opus
hikey=a2
hivel=127
lokey=g#2
lovel=65
pitch_keycenter=A2
tune=0
volume=0

<region>
sample=6Horns_muted_staccato_FF_A#2_RR2.opus
hivel=127
key=a#2
lovel=65
tune=0
volume=0

